#tb 0: 1/22050
#media_type 0: audio
#codec_id 0: pcm_s16le
#sample_rate 0: 22050
#channel_layout 0: 4
#channel_layout_name 0: mono
0,          0,          0,      512,     1024, 0x00000000
0,        512,        512,      512,     1024, 0x00000000
0,       1024,       1024,      512,     1024, 0xed2d3f6b
0,       1533,       1533,      512,     1024, 0x51f6ccb3
0,       2040,       2040,      512,     1024, 0x58bd75aa
0,       2558,       2558,      512,     1024, 0xd857a310
0,       3070,       3070,      512,     1024, 0xc483a5b8
0,       3582,       3582,      512,     1024, 0x923ecf67
0,       4091,       4091,      512,     1024, 0xf87dcd53
0,       4598,       4598,      512,     1024, 0xdc32c002
0,       5116,       5116,      512,     1024, 0xb760def1
0,       5628,       5628,      512,     1024, 0x6838d2b2
0,       6140,       6140,      512,     1024, 0xe45aca1e
0,       6649,       6649,      512,     1024, 0xde1fb955
0,       7166,       7166,      512,     1024, 0x9e23b949
0,       7678,       7678,      512,     1024, 0x840cc000
0,       8190,       8190,      512,     1024, 0x0a29cbfa
0,       8699,       8699,      512,     1024, 0x9871d4c4
0,       9206,       9206,      512,     1024, 0xb35dc9f2
0,       9724,       9724,      512,     1024, 0xf37fda0a
0,      10236,      10236,      512,     1024, 0xa640f990
0,      10748,      10748,      512,     1024, 0x516fe6f5
0,      11257,      11257,      512,     1024, 0xc78bc6a6
0,      11775,      11775,      512,     1024, 0x700fd6ee
0,      12287,      12287,      512,     1024, 0x5383d5ad
0,      12799,      12799,      512,     1024, 0xbe01d091
0,      13308,      13308,      512,     1024, 0x72dfcfc7
0,      13815,      13815,      512,     1024, 0xd8fecea9
0,      14333,      14333,      512,     1024, 0xa464d79b
0,      14845,      14845,      512,     1024, 0xf394e2cb
0,      15357,      15357,      512,     1024, 0xa301ec49
0,      15865,      15865,      512,     1024, 0x5e09d60f
0,      16383,      16383,      512,     1024, 0xd13edd6f
0,      16895,      16895,      512,     1024, 0x7423ef39
0,      17407,      17407,      512,     1024, 0x96e2f083
0,      17916,      17916,      512,     1024, 0x5ed7dbee
0,      18423,      18423,      512,     1024, 0x3874f714
0,      18941,      18941,      512,     1024, 0xa5e6edab
0,      19453,      19453,      512,     1024, 0x0a04ee3a
0,      19965,      19965,      512,     1024, 0xadfee6b9
0,      20474,      20474,      512,     1024, 0xd0bbe6d2
0,      20992,      20992,      512,     1024, 0x223eebb7
0,      21504,      21504,      512,     1024, 0x0473e479
0,      22016,      22016,      512,     1024, 0xdf15e51e
0,      22525,      22525,      512,     1024, 0xa954e483
0,      23032,      23032,      512,     1024, 0x6df3ed03
0,      23549,      23549,      512,     1024, 0x0860e544
0,      24061,      24061,      512,     1024, 0xc241e8dc
0,      24573,      24573,      512,     1024, 0xd0e1d6a4
0,      25082,      25082,      512,     1024, 0xcb2ff988
0,      25590,      25590,      512,     1024, 0x51fae08e
0,      26107,      26107,      512,     1024, 0xae39f2fc
0,      26619,      26619,      512,     1024, 0xfd74f07c
0,      27131,      27131,      512,     1024, 0x1936edc1
0,      27640,      27640,      512,     1024, 0x95f8deae
0,      28158,      28158,      512,     1024, 0x93bdf605
0,      28670,      28670,      512,     1024, 0x7a07dd32
0,      29182,      29182,      512,     1024, 0x6889fdc1
0,      29691,      29691,      512,     1024, 0x989bf024
0,      30198,      30198,      512,     1024, 0xc764ce80
0,      30716,      30716,      512,     1024, 0x0e62d721
0,      31228,      31228,      512,     1024, 0x59c2fbe3
0,      31740,      31740,      512,     1024, 0xf14ee29d
0,      32249,      32249,      512,     1024, 0x02a0f21b
0,      32766,      32766,      512,     1024, 0xadb3d361
0,      33278,      33278,      512,     1024, 0xdcb3d1fc
0,      33790,      33790,      512,     1024, 0x2924f9dc
0,      34299,      34299,      512,     1024, 0x7507ebec
0,      34806,      34806,      512,     1024, 0xe009f343
0,      35324,      35324,      512,     1024, 0x21e9e7ac
0,      35836,      35836,      512,     1024, 0x845bda9e
0,      36348,      36348,      512,     1024, 0xb1b3e632
0,      36857,      36857,      512,     1024, 0x61ccf593
0,      37375,      37375,      512,     1024, 0x8cdbf603
0,      37887,      37887,      512,     1024, 0xf8f7e673
0,      38399,      38399,      512,     1024, 0x55efdd24
0,      38908,      38908,      512,     1024, 0x4059e8ff
0,      39415,      39415,      512,     1024, 0xb3afe5be
0,      39933,      39933,      512,     1024, 0x7236e965
0,      40445,      40445,      512,     1024, 0xe683db69
0,      40957,      40957,      512,     1024, 0x29e3d93c
0,      41466,      41466,      512,     1024, 0x74f2f27f
0,      41983,      41983,      512,     1024, 0x32cde3ba
0,      42495,      42495,      512,     1024, 0xe907f171
0,      43007,      43007,      512,     1024, 0x206ae2a5
0,      43516,      43516,      512,     1024, 0x6379efa1
0,      44023,      44023,      512,     1024, 0x0f0fee85
0,      44541,      44541,      512,     1024, 0x3195e314
0,      45053,      45053,      512,     1024, 0x4646ead3
0,      45565,      45565,      512,     1024, 0x5635dcf5
0,      46074,      46074,      512,     1024, 0xd76fc780
0,      46592,      46592,      512,     1024, 0x847ff8a5
0,      47104,      47104,      512,     1024, 0xaca8eda3
0,      47616,      47616,      512,     1024, 0x9a2de1ea
0,      48125,      48125,      512,     1024, 0xc92ff23a
0,      48632,      48632,      512,     1024, 0x0e0ef038
0,      49149,      49149,      512,     1024, 0xc32cf495
0,      49661,      49661,      512,     1024, 0x6ab1ec79
0,      50173,      50173,      512,     1024, 0xe43cd8d6
0,      50682,      50682,      512,     1024, 0x4ba2deab
0,      51190,      51190,      512,     1024, 0x6d16ea0e
0,      51707,      51707,      512,     1024, 0xe5b0ee70
0,      52219,      52219,      512,     1024, 0xcf6cf074
0,      52731,      52731,      512,     1024, 0x2206e61d
0,      53240,      53240,      512,     1024, 0xfbb9e7e7
0,      53758,      53758,      512,     1024, 0x2bc1e115
0,      54270,      54270,      512,     1024, 0x4ca6e5c5
0,      54782,      54782,      512,     1024, 0x061cead0
0,      55291,      55291,      512,     1024, 0x3dc9f950
0,      55798,      55798,      512,     1024, 0x9399f10d
0,      56316,      56316,      512,     1024, 0xa2bff5ae
0,      56828,      56828,      512,     1024, 0xd21de569
0,      57340,      57340,      512,     1024, 0x1c45e3be
0,      57849,      57849,      512,     1024, 0xff5dff1c
0,      58366,      58366,      512,     1024, 0x992df5d3
0,      58878,      58878,      512,     1024, 0xafedea2f
0,      59390,      59390,      512,     1024, 0x6e73d6a8
0,      59899,      59899,      512,     1024, 0x72dff283
0,      60406,      60406,      512,     1024, 0x50b5f1a6
0,      60924,      60924,      512,     1024, 0xffe1decb
0,      61436,      61436,      512,     1024, 0x8993ecff
0,      61948,      61948,      512,     1024, 0x954bd63a
0,      62457,      62457,      512,     1024, 0x4707f577
0,      62975,      62975,      512,     1024, 0x7a88f81f
0,      63487,      63487,      512,     1024, 0xc771f537
0,      63999,      63999,      512,     1024, 0x7aade6af
0,      64508,      64508,      512,     1024, 0x8af5ede5
0,      65015,      65015,      512,     1024, 0x7500f3f1
0,      65533,      65533,      512,     1024, 0xea36f707
0,      66045,      66045,      512,     1024, 0x1a26e39a
0,      66557,      66557,      512,     1024, 0xa04cf00d
0,      67066,      67066,      512,     1024, 0xc362f182
0,      67583,      67583,      512,     1024, 0x79c8f82c
0,      68095,      68095,      512,     1024, 0x6480eee1
0,      68607,      68607,      512,     1024, 0x7152eaa0
0,      69116,      69116,      512,     1024, 0x5dfee6a9
0,      69623,      69623,      512,     1024, 0x0afae660
0,      70141,      70141,      512,     1024, 0xdc98e9fc
0,      70653,      70653,      512,     1024, 0x10b7da06
0,      71165,      71165,      512,     1024, 0x0571e585
0,      71674,      71674,      512,     1024, 0x18ddf45e
0,      72192,      72192,      512,     1024, 0x2cbef242
0,      72704,      72704,      512,     1024, 0xf5380845
0,      73216,      73216,      512,     1024, 0x34fff45e
0,      73725,      73725,      512,     1024, 0x6f97e490
0,      74232,      74232,      512,     1024, 0x77d6f0db
0,      74750,      74750,      512,     1024, 0xa25ce2db
0,      75262,      75262,      512,     1024, 0x8260e4e9
0,      75774,      75774,      512,     1024, 0xc3b2f7d2
0,      76282,      76282,      512,     1024, 0x82a7edae
0,      76790,      76790,      512,     1024, 0x7d08dd54
0,      77307,      77307,      512,     1024, 0x9059eda6
0,      77819,      77819,      512,     1024, 0xbebaec88
0,      78331,      78331,      512,     1024, 0xd9afd586
0,      78840,      78840,      512,     1024, 0x0ca3e622
0,      79358,      79358,      512,     1024, 0x4123e9e6
0,      79870,      79870,      512,     1024, 0x2ff9f95c
0,      80382,      80382,      512,     1024, 0x8522e261
0,      80891,      80891,      512,     1024, 0xe4f8f499
0,      81398,      81398,      512,     1024, 0x34f3f2bd
0,      81916,      81916,      512,     1024, 0x82efe863
0,      82428,      82428,      512,     1024, 0x9966fcea
0,      82940,      82940,      512,     1024, 0xe94de3fd
0,      83449,      83449,      512,     1024, 0x1ce0e27b
0,      83966,      83966,      512,     1024, 0xd718dcde
0,      84478,      84478,      512,     1024, 0xd503e724
0,      84990,      84990,      512,     1024, 0x427ee3b2
0,      85499,      85499,      512,     1024, 0x4512dcc4
0,      86007,      86007,      512,     1024, 0xcf31e77c
0,      86524,      86524,      512,     1024, 0xeb41ea81
0,      87036,      87036,      512,     1024, 0xfa43e67c
0,      87548,      87548,      512,     1024, 0x8162f3c9
0,      88057,      88057,      512,     1024, 0x1b55f6b0
0,      88575,      88575,      512,     1024, 0x3ebeec44
0,      89087,      89087,      512,     1024, 0x740fe0c4
0,      89599,      89599,      512,     1024, 0x8fb4e8b2
0,      90108,      90108,      512,     1024, 0xe49de6a2
0,      90615,      90615,      512,     1024, 0xd64febdf
0,      91133,      91133,      512,     1024, 0x0e74ee08
0,      91645,      91645,      512,     1024, 0x6c0ddf07
0,      92157,      92157,      512,     1024, 0x7fb8e3c9
0,      92666,      92666,      512,     1024, 0x52bfe96c
0,      93183,      93183,      512,     1024, 0xfc22ee64
0,      93695,      93695,      512,     1024, 0xe20ae718
0,      94207,      94207,      512,     1024, 0xa94be395
0,      94716,      94716,      512,     1024, 0xded306d0
0,      95223,      95223,      512,     1024, 0x31f7c831
0,      95741,      95741,      512,     1024, 0x0ffde0a8
0,      96253,      96253,      512,     1024, 0xc692e3e0
0,      96765,      96765,      512,     1024, 0x1d8ff7c7
0,      97274,      97274,      512,     1024, 0x038ee172
0,      97792,      97792,      512,     1024, 0x9a1eef59
0,      98304,      98304,      512,     1024, 0x158fe750
0,      98816,      98816,      512,     1024, 0xac15e42c
0,      99325,      99325,      512,     1024, 0x6323ed44
0,      99832,      99832,      512,     1024, 0xd10ce4bb
0,     100350,     100350,      512,     1024, 0xc1cce296
0,     100862,     100862,      512,     1024, 0x0782f094
0,     101374,     101374,      512,     1024, 0xd109de36
0,     101883,     101883,      512,     1024, 0x175600fb
0,     102390,     102390,      512,     1024, 0x95d5e8d9
0,     102907,     102907,      512,     1024, 0xebb6eee1
0,     103419,     103419,      512,     1024, 0x187cfadc
0,     103931,     103931,      512,     1024, 0xce35fa5c
0,     104440,     104440,      512,     1024, 0x8327eea2
0,     104958,     104958,      512,     1024, 0x5543f219
0,     105470,     105470,      512,     1024, 0xaacbe0dc
0,     105982,     105982,      512,     1024, 0xa538e9fb
0,     106491,     106491,      512,     1024, 0x4dcbe655
0,     106998,     106998,      512,     1024, 0x86b6d93b
0,     107516,     107516,      512,     1024, 0x1a06f878
0,     108028,     108028,      512,     1024, 0xd926e8ef
0,     108540,     108540,      512,     1024, 0xc624db2f
0,     109049,     109049,      512,     1024, 0x2153e20d
0,     109566,     109566,      512,     1024, 0x01dce868
0,     110078,     110078,      512,     1024, 0xfa5fd3cd
0,     110590,     110590,      512,     1024, 0x2adef2d5
0,     111099,     111099,      512,     1024, 0x4f48f8e2
0,     111607,     111607,      512,     1024, 0x613feeee
0,     112124,     112124,      512,     1024, 0x3780de8a
0,     112636,     112636,      512,     1024, 0x2093eb65
0,     113148,     113148,      512,     1024, 0x54baebbb
0,     113657,     113657,      512,     1024, 0x8686dd7c
0,     114175,     114175,      512,     1024, 0x7f8ae80c
0,     114687,     114687,      512,     1024, 0x7aede972
0,     115199,     115199,      512,     1024, 0x971bebc0
0,     115708,     115708,      512,     1024, 0x2dd5fd4b
0,     116215,     116215,      512,     1024, 0xb1b3e4a3
0,     116733,     116733,      512,     1024, 0x192defc6
0,     117245,     117245,      512,     1024, 0x5e46ec44
0,     117757,     117757,      512,     1024, 0xe6d8e05a
0,     118266,     118266,      512,     1024, 0x7e2fe2b0
0,     118783,     118783,      512,     1024, 0x9e3bdf80
0,     119295,     119295,      512,     1024, 0xa98cd85e
0,     119807,     119807,      512,     1024, 0x6061e0c4
0,     120316,     120316,      512,     1024, 0x6112f3fc
0,     120823,     120823,      512,     1024, 0x99bdfb01
0,     121341,     121341,      512,     1024, 0x3f5df3ca
0,     121853,     121853,      512,     1024, 0xf5ebeb05
0,     122365,     122365,      512,     1024, 0x8498e565
0,     122874,     122874,      512,     1024, 0x0497f0b7
0,     123392,     123392,      512,     1024, 0x626ae800
0,     123904,     123904,      512,     1024, 0xfb71eec4
0,     124416,     124416,      512,     1024, 0xa86ee739
0,     124925,     124925,      512,     1024, 0x25c0e050
0,     125432,     125432,      512,     1024, 0x6027e91e
0,     125950,     125950,      512,     1024, 0x6772df6e
0,     126462,     126462,      512,     1024, 0xfefff844
0,     126974,     126974,      512,     1024, 0x547be862
0,     127483,     127483,      512,     1024, 0xca84e795
0,     127990,     127990,      512,     1024, 0xd124db3e
0,     128507,     128507,      512,     1024, 0xcaf3deb5
0,     129019,     129019,      512,     1024, 0x487ce92d
0,     129531,     129531,      512,     1024, 0x117feb95
0,     130040,     130040,      512,     1024, 0x7b63de3d
0,     130558,     130558,      512,     1024, 0xa529d8e1
0,     131070,     131070,      512,     1024, 0x56f6da26
0,     131582,     131582,      512,     1024, 0xffb8d5af
0,     132091,     132091,      512,     1024, 0xeecbdc04
0,     132598,     132598,      512,     1024, 0xfc59d2d2
0,     133116,     133116,      512,     1024, 0xaf7acef7
0,     133628,     133628,      512,     1024, 0x3f9bf258
0,     134140,     134140,      512,     1024, 0xcf54e9d6
0,     134649,     134649,      512,     1024, 0x680cd0aa
0,     135167,     135167,      512,     1024, 0x3c1bdc1f
0,     135679,     135679,      512,     1024, 0x8c8ffe22
0,     136191,     136191,      512,     1024, 0xf415d362
0,     136699,     136699,      512,     1024, 0x8c8cdaa9
0,     137207,     137207,      512,     1024, 0x9531e9f1
0,     137724,     137724,      512,     1024, 0x223ce536
0,     138236,     138236,      512,     1024, 0xdfbce5f9
0,     138748,     138748,      512,     1024, 0x20b6ed7d
0,     139257,     139257,      512,     1024, 0x1a17e109
0,     139775,     139775,      512,     1024, 0xc672eaea
0,     140287,     140287,      512,     1024, 0x12a7dc5e
0,     140799,     140799,      512,     1024, 0x4497f342
0,     141308,     141308,      512,     1024, 0xdfb5db4b
0,     141815,     141815,      512,     1024, 0xde48ef6c
0,     142333,     142333,      512,     1024, 0x1d98e316
0,     142845,     142845,      512,     1024, 0xbd2ad72f
0,     143357,     143357,      512,     1024, 0xf1aad776
0,     143866,     143866,      512,     1024, 0x4db3e3c0
0,     144383,     144383,      512,     1024, 0x832de0a0
0,     144895,     144895,      512,     1024, 0xc5f0ef25
0,     145407,     145407,      512,     1024, 0x419bda6e
0,     145916,     145916,      512,     1024, 0x5de7f77e
0,     146424,     146424,      512,     1024, 0x0063ec9a
0,     146941,     146941,      512,     1024, 0x10c3d470
0,     147453,     147453,      512,     1024, 0xba66d226
0,     147965,     147965,      512,     1024, 0xea47ded3
0,     148474,     148474,      512,     1024, 0x6202d67b
0,     148992,     148992,      512,     1024, 0x3f80e7cf
0,     149504,     149504,      512,     1024, 0x4e64eaae
0,     150016,     150016,      512,     1024, 0x2108e83d
0,     150525,     150525,      512,     1024, 0x38c3dec1
0,     151032,     151032,      512,     1024, 0x46d3f77a
0,     151550,     151550,      512,     1024, 0x4838e787
0,     152062,     152062,      512,     1024, 0xc71df16d
0,     152574,     152574,      512,     1024, 0xdbe4ebbd
0,     153083,     153083,      512,     1024, 0xa156d07b
0,     153590,     153590,      512,     1024, 0x34eddc80
0,     154107,     154107,      512,     1024, 0xe840e87c
0,     154619,     154619,      512,     1024, 0x6accf8f5
0,     155131,     155131,      512,     1024, 0xa1dbebb9
0,     155640,     155640,      512,     1024, 0x6d07d98c
0,     156158,     156158,      512,     1024, 0x94c7e805
0,     156670,     156670,      512,     1024, 0x5199e586
0,     157182,     157182,      512,     1024, 0xe797e1aa
0,     157691,     157691,      512,     1024, 0xff19eda7
0,     158198,     158198,      512,     1024, 0x9cb9d040
0,     158716,     158716,      512,     1024, 0xaeedd325
0,     159228,     159228,      512,     1024, 0xf5ade306
0,     159740,     159740,      512,     1024, 0x54a5e129
0,     160249,     160249,      512,     1024, 0x6665ddeb
0,     160767,     160767,      512,     1024, 0x9d18e033
0,     161279,     161279,      512,     1024, 0x7f23df74
0,     161791,     161791,      512,     1024, 0x7c34f158
0,     162300,     162300,      512,     1024, 0x47f6dae2
0,     162807,     162807,      512,     1024, 0x5ffdd903
0,     163324,     163324,      512,     1024, 0x8233d108
0,     163836,     163836,      512,     1024, 0x45c6e20d
0,     164348,     164348,      512,     1024, 0xae11fa6e
0,     164857,     164857,      512,     1024, 0xa30defd2
0,     165375,     165375,      512,     1024, 0xfc1ecccf
0,     165887,     165887,      512,     1024, 0x920edc94
0,     166399,     166399,      512,     1024, 0xd7f3dc58
0,     166908,     166908,      512,     1024, 0x4972d37d
0,     167415,     167415,      512,     1024, 0xfefef358
0,     167933,     167933,      512,     1024, 0x3648e473
0,     168445,     168445,      512,     1024, 0x58dee6c3
0,     168957,     168957,      512,     1024, 0x9cc6df27
0,     169466,     169466,      512,     1024, 0x6adfe99c
0,     169983,     169983,      512,     1024, 0x6a56e11f
0,     170495,     170495,      512,     1024, 0x4860edf1
0,     171007,     171007,      512,     1024, 0x9132f10a
0,     171516,     171516,      512,     1024, 0x3e09d209
0,     172024,     172024,      512,     1024, 0x4b6bf4d8
0,     172541,     172541,      512,     1024, 0x0cd5e838
0,     173053,     173053,      512,     1024, 0x080be078
0,     173565,     173565,      512,     1024, 0xfdb0e31c
0,     174074,     174074,      512,     1024, 0xced5e7bd
0,     174592,     174592,      512,     1024, 0x65b3e435
0,     175104,     175104,      512,     1024, 0x5b5bfe2e
0,     175616,     175616,      512,     1024, 0xa8bde3cb
0,     176125,     176125,      512,     1024, 0xfd0fdefa
0,     176632,     176632,      512,     1024, 0xbec4ef95
0,     177150,     177150,      512,     1024, 0x683ad8dd
0,     177662,     177662,      512,     1024, 0x8eefeb77
0,     178174,     178174,      512,     1024, 0x84fc5878
0,     178683,     178683,      512,     1024, 0x9a0ded60
